{
    "asset" : {
        "generator" : "Khronos glTF Blender I/O v1.1.46",
        "version" : "2.0"
    },
    "scene" : 0,
    "scenes" : [
        {
            "name" : "Scene",
            "nodes" : [
                0
            ]
        }
    ],
    "nodes" : [
        {
            "mesh" : 0,
            "name" : "Screen"
        }
    ],
    "materials" : [
        {
            "doubleSided" : true,
            "emissiveFactor" : [
                0,
                0,
                0
            ],
            "name" : "Laptop base",
            "pbrMetallicRoughness" : {
                "baseColorFactor" : [
                    0.220257967710495,
                    0.220257967710495,
                    0.220257967710495,
                    1
                ],
                "metallicFactor" : 0.7771428823471069,
                "roughnessFactor" : 0.4000000059604645
            }
        },
        {
            "doubleSided" : true,
            "emissiveFactor" : [
                0,
                0,
                0
            ],
            "name" : "Screen",
            "pbrMetallicRoughness" : {
                "baseColorFactor" : [
                    0.027209952473640442,
                    0.027209952473640442,
                    0.027209952473640442,
                    1
                ],
                "metallicFactor" : 0,
                "roughnessFactor" : 0.8714286088943481
            }
        },
        {
            "doubleSided" : true,
            "emissiveFactor" : [
                0,
                0,
                0
            ],
            "name" : "Hinge",
            "pbrMetallicRoughness" : {
                "baseColorFactor" : [
                    0,
                    0,
                    0,
                    1
                ],
                "metallicFactor" : 0,
                "roughnessFactor" : 0.5
            }
        },
        {
            "doubleSided" : true,
            "emissiveFactor" : [
                0,
                0,
                0
            ],
            "name" : "Trackpad",
            "pbrMetallicRoughness" : {
                "baseColorFactor" : [
                    0.027209952473640442,
                    0.027209952473640442,
                    0.027209952473640442,
                    1
                ],
                "metallicFactor" : 0,
                "roughnessFactor" : 0.5
            }
        },
        {
            "doubleSided" : true,
            "emissiveFactor" : [
                0,
                0,
                0
            ],
            "name" : "Keys",
            "pbrMetallicRoughness" : {
                "baseColorFactor" : [
                    0.010021880269050598,
                    0.010021880269050598,
                    0.010021880269050598,
                    1
                ],
                "metallicFactor" : 0,
                "roughnessFactor" : 0.7657142877578735
            }
        }
    ],
    "meshes" : [
        {
            "name" : "Cube.025",
            "primitives" : [
                {
                    "attributes" : {
                        "POSITION" : 0,
                        "NORMAL" : 1,
                        "TEXCOORD_0" : 2
                    },
                    "indices" : 3,
                    "material" : 0
                },
                {
                    "attributes" : {
                        "POSITION" : 4,
                        "NORMAL" : 5,
                        "TEXCOORD_0" : 6
                    },
                    "indices" : 7,
                    "material" : 1
                },
                {
                    "attributes" : {
                        "POSITION" : 8,
                        "NORMAL" : 9,
                        "TEXCOORD_0" : 10
                    },
                    "indices" : 11,
                    "material" : 2
                },
                {
                    "attributes" : {
                        "POSITION" : 12,
                        "NORMAL" : 13,
                        "TEXCOORD_0" : 14
                    },
                    "indices" : 15,
                    "material" : 3
                },
                {
                    "attributes" : {
                        "POSITION" : 16,
                        "NORMAL" : 17,
                        "TEXCOORD_0" : 18
                    },
                    "indices" : 19,
                    "material" : 4
                }
            ]
        }
    ],
    "accessors" : [
        {
            "bufferView" : 0,
            "componentType" : 5126,
            "count" : 2589,
            "max" : [
                0.17970000207424164,
                0.3052946925163269,
                0.1500563621520996
            ],
            "min" : [
                -0.17970000207424164,
                -0.036418378353118896,
                -0.0720858946442604
            ],
            "type" : "VEC3"
        },
        {
            "bufferView" : 1,
            "componentType" : 5126,
            "count" : 2589,
            "type" : "VEC3"
        },
        {
            "bufferView" : 2,
            "componentType" : 5126,
            "count" : 2589,
            "type" : "VEC2"
        },
        {
            "bufferView" : 3,
            "componentType" : 5123,
            "count" : 4032,
            "type" : "SCALAR"
        },
        {
            "bufferView" : 4,
            "componentType" : 5126,
            "count" : 24,
            "max" : [
                0.17885363101959229,
                0.30365562438964844,
                -0.06793715804815292
            ],
            "min" : [
                -0.17885363101959229,
                0.06928316503763199,
                -0.07208581268787384
            ],
            "type" : "VEC3"
        },
        {
            "bufferView" : 5,
            "componentType" : 5126,
            "count" : 24,
            "type" : "VEC3"
        },
        {
            "bufferView" : 6,
            "componentType" : 5126,
            "count" : 24,
            "type" : "VEC2"
        },
        {
            "bufferView" : 7,
            "componentType" : 5123,
            "count" : 36,
            "type" : "SCALAR"
        },
        {
            "bufferView" : 8,
            "componentType" : 5126,
            "count" : 212,
            "max" : [
                0.05718192085623741,
                0.30312153697013855,
                -0.06333637237548828
            ],
            "min" : [
                -0.05718192085623741,
                0.06346316635608673,
                -0.07008374482393265
            ],
            "type" : "VEC3"
        },
        {
            "bufferView" : 9,
            "componentType" : 5126,
            "count" : 212,
            "type" : "VEC3"
        },
        {
            "bufferView" : 10,
            "componentType" : 5126,
            "count" : 212,
            "type" : "VEC2"
        },
        {
            "bufferView" : 11,
            "componentType" : 5123,
            "count" : 426,
            "type" : "SCALAR"
        },
        {
            "bufferView" : 12,
            "componentType" : 5126,
            "count" : 20,
            "max" : [
                0.05418626219034195,
                0.004854530096054077,
                0.14240390062332153
            ],
            "min" : [
                -0.05418626219034195,
                -0.026301443576812744,
                0.07239548861980438
            ],
            "type" : "VEC3"
        },
        {
            "bufferView" : 13,
            "componentType" : 5126,
            "count" : 20,
            "type" : "VEC3"
        },
        {
            "bufferView" : 14,
            "componentType" : 5126,
            "count" : 20,
            "type" : "VEC2"
        },
        {
            "bufferView" : 15,
            "componentType" : 5123,
            "count" : 54,
            "type" : "SCALAR"
        },
        {
            "bufferView" : 16,
            "componentType" : 5126,
            "count" : 8024,
            "max" : [
                0.14147721230983734,
                0.055750444531440735,
                0.06129869818687439
            ],
            "min" : [
                -0.14202731847763062,
                0.00799645110964775,
                -0.04241766035556793
            ],
            "type" : "VEC3"
        },
        {
            "bufferView" : 17,
            "componentType" : 5126,
            "count" : 8024,
            "type" : "VEC3"
        },
        {
            "bufferView" : 18,
            "componentType" : 5126,
            "count" : 8024,
            "type" : "VEC2"
        },
        {
            "bufferView" : 19,
            "componentType" : 5123,
            "count" : 15228,
            "type" : "SCALAR"
        }
    ],
    "bufferViews" : [
        {
            "buffer" : 0,
            "byteLength" : 31068,
            "byteOffset" : 0
        },
        {
            "buffer" : 0,
            "byteLength" : 31068,
            "byteOffset" : 31068
        },
        {
            "buffer" : 0,
            "byteLength" : 20712,
            "byteOffset" : 62136
        },
        {
            "buffer" : 0,
            "byteLength" : 8064,
            "byteOffset" : 82848
        },
        {
            "buffer" : 0,
            "byteLength" : 288,
            "byteOffset" : 90912
        },
        {
            "buffer" : 0,
            "byteLength" : 288,
            "byteOffset" : 91200
        },
        {
            "buffer" : 0,
            "byteLength" : 192,
            "byteOffset" : 91488
        },
        {
            "buffer" : 0,
            "byteLength" : 72,
            "byteOffset" : 91680
        },
        {
            "buffer" : 0,
            "byteLength" : 2544,
            "byteOffset" : 91752
        },
        {
            "buffer" : 0,
            "byteLength" : 2544,
            "byteOffset" : 94296
        },
        {
            "buffer" : 0,
            "byteLength" : 1696,
            "byteOffset" : 96840
        },
        {
            "buffer" : 0,
            "byteLength" : 852,
            "byteOffset" : 98536
        },
        {
            "buffer" : 0,
            "byteLength" : 240,
            "byteOffset" : 99388
        },
        {
            "buffer" : 0,
            "byteLength" : 240,
            "byteOffset" : 99628
        },
        {
            "buffer" : 0,
            "byteLength" : 160,
            "byteOffset" : 99868
        },
        {
            "buffer" : 0,
            "byteLength" : 108,
            "byteOffset" : 100028
        },
        {
            "buffer" : 0,
            "byteLength" : 96288,
            "byteOffset" : 100136
        },
        {
            "buffer" : 0,
            "byteLength" : 96288,
            "byteOffset" : 196424
        },
        {
            "buffer" : 0,
            "byteLength" : 64192,
            "byteOffset" : 292712
        },
        {
            "buffer" : 0,
            "byteLength" : 30456,
            "byteOffset" : 356904
        }
    ],
    "buffers" : [
        {
            "byteLength" : 387360,
            "uri" : "data:application/octet-stream;base64,"
        }
    ]
}
